{"title":"Allegiant 2016 BRRip x264 AAC-SSN","uid":15229393,"size":1458264715,"categoryP":"video","categoryS":"movies","magnet":"?xt=urn:btih:ac31ede20d7cbd598b1580d7fdd402a04d0e872e&amp;dn=Allegiant+2016+BRRip+x264+AAC-SSN&amp;tr=udp%3A%2F%2Ftracker.leechers-paradise.org%3A6969&amp;tr=udp%3A%2F%2Fzer0day.ch%3A1337&amp;tr=udp%3A%2F%2Fopen.demonii.com%3A1337&amp;tr=udp%3A%2F%2Ftracker.coppersurfer.tk%3A6969&amp;tr=udp%3A%2F%2Fexodus.desync.com%3A6969","seeders":1,"leechers":0,"uploader":"somespirit","files":2,"time":1467805884,"description":"IMDB:  http://www.imdb.com/title/tt3410834/\r\n\r\n Source: Allegiant.2016.720p.BluRay.DD5.1.x264-HiDt\r\n\r\n\r\n\r\n General\r\n Complete name                            : Allegiant 2016 BRRip x264 AAC-SSN.mkv\r\n Format                                   : Matroska\r\n Format version                           : Version 4 / Version 2\r\n File size                                : 1.36 GiB\r\n Duration                                 : 2h 0mn\r\n Overall bit rate                         : 1 613 Kbps\r\n Encoded date                             : UTC 2016-07-04 12:15:43\r\n Writing application                      : mkvmerge v8.6.1 ('Flying') 64bit\r\n Writing library                          : libebml v1.3.3 + libmatroska v1.4.4\r\n\r\n Video\r\n ID                                       : 1\r\n Format                                   : AVC\r\n Format/Info                              : Advanced Video Codec\r\n Format profile                           :   \r\n Format settings, CABAC                   : Yes\r\n Format settings, ReFrames                : 5 frames\r\n Codec ID                                 : V_MPEG4/ISO/AVC\r\n Duration                                 : 2h 0mn\r\n Bit rate                                 : 1 282 Kbps\r\n Width                                    : 900 pixels\r\n Height                                   : 376 pixels\r\n Display aspect ratio                     : 2.40:1\r\n Frame rate mode                          : Constant\r\n Frame rate                               : 23.976 (24000/1001) fps\r\n Color space                              : YUV\r\n Chroma subsampling                       : 4:2:0\r\n Bit depth                                : 8 bits\r\n Scan type                                : Progressive\r\n Bits/(Pixel*Frame)                       : 0.190\r\n Stream size                              : 1.08 GiB (79%)\r\n Writing library                          : x264 core 148 r2692 64f4e24\r\n Language                                 : English\r\n Default                                  : Yes\r\n Forced                                   : No\r\n\r\n Audio\r\n ID                                       : 2\r\n Format                                   : AAC\r\n Format/Info                              : Advanced Audio Codec\r\n Format profile                           : LC\r\n Codec ID                                 : A_AAC\r\n Duration                                 : 2h 0mn\r\n Bit rate                                 : 331 Kbps\r\n Channel(s)                               : 6 channels\r\n Channel positions                        : Front: L C R, Side: L R, LFE\r\n Sampling rate                            : 32.0 KHz\r\n Frame rate                               : 31.250 fps (1024 spf)\r\n Compression mode                         : Lossy\r\n Stream size                              : 285 MiB (20%)\r\n Language                                 : English\r\n Default                                  : Yes\r\n Forced                                   : No\r\n\r\n \nhttp://lookpic.com/O/i2/1982/W5r0f0sg.png\r\n \nhttp://lookpic.com/O/i2/1456/VHsK7ejK.png\r\n \nhttp://lookpic.com/O/i2/1063/OmzDYzAH.png","torrent":{"xt":"urn:btih:ac31ede20d7cbd598b1580d7fdd402a04d0e872e","amp;dn":"Allegiant+2016+BRRip+x264+AAC-SSN","amp;tr":["udp%3A%2F%2Ftracker.leechers-paradise.org%3A6969","udp%3A%2F%2Fzer0day.ch%3A1337","udp%3A%2F%2Fopen.demonii.com%3A1337","udp%3A%2F%2Ftracker.coppersurfer.tk%3A6969","udp%3A%2F%2Fexodus.desync.com%3A6969"],"infoHash":"ac31ede20d7cbd598b1580d7fdd402a04d0e872e","infoHashBuffer":{"type":"Buffer","data":[172,49,237,226,13,124,189,89,139,21,128,215,253,212,2,160,77,14,135,46]},"announce":[],"urlList":[]}}